<svg width="323" height="299" viewBox="0 0 323 299" fill="none" xmlns="http://www.w3.org/2000/svg">
<path d="M161.2 0.0236052C247.117 -0.765447 322.116 64.0684 322.4 148.76C322.683 230.427 253.213 298.68 161.625 298.812C67.7694 299.075 0.141978 228.849 0.000201823 149.549C-0.141575 65.515 74.4329 -0.765447 161.2 0.0236052ZM214.933 191.763C216.635 192.815 216.918 193.21 217.344 193.341C243.856 198.733 269.801 197.155 295.604 189.265C299.29 188.081 300.708 185.714 301.417 182.558C307.797 158.36 307.372 134.426 299.716 110.622C298.581 107.072 297.022 105.625 292.769 106.546C274.763 110.622 256.332 111.412 237.901 109.702C232.939 109.307 230.812 110.491 228.969 114.568C223.865 126.667 217.06 137.845 208.27 148.102C207.419 149.155 206.994 150.601 206.001 152.442C218.052 152.311 227.126 156.125 230.103 166.645C233.364 178.481 227.693 186.766 214.933 191.763ZM17.1552 137.845C16.8716 140.87 16.3045 143.237 16.4463 145.472C17.1552 155.072 18.2894 164.673 18.9982 174.273C19.2818 179.139 22.1173 181.374 26.796 183.084C62.3819 195.577 97.826 195.577 133.27 182.821C137.098 181.374 140.784 179.533 145.179 177.692C143.62 176.114 142.769 175.062 141.777 174.273C131.143 165.725 122.353 155.861 114.414 145.078C110.302 139.554 110.302 139.554 102.93 141.133C84.0737 145.078 65.0756 145.735 45.9358 143.105C36.7203 141.79 27.5048 139.817 17.1552 137.845ZM216.918 273.299C215.217 271.984 214.65 271.458 214.083 271.195C193.1 264.751 181.474 250.811 178.497 230.953C177.079 221.09 177.504 210.964 177.646 200.837C177.646 198.076 177.221 196.366 174.527 195.051C169.99 192.815 165.595 188.87 160.917 188.476C156.663 188.213 151.985 191.895 147.59 193.736C147.164 193.868 146.739 194.131 146.314 194.262C143.336 195.314 142.911 197.155 142.911 199.917C143.053 208.465 143.62 217.013 142.344 225.43C139.083 246.603 127.457 261.989 104.064 268.038C102.646 268.433 101.37 269.222 98.8184 270.406C138.232 286.844 176.795 287.765 216.918 273.299ZM27.9302 199.917C28.7808 202.547 29.0644 203.862 29.6315 205.046C37.1456 220.432 47.9206 233.32 60.2552 245.682C68.1947 253.704 77.4102 255.677 88.1852 255.151C109.168 254.099 121.786 244.367 125.756 225.693C127.315 218.065 128.733 210.306 125.756 201.89C93.2891 210.043 61.2476 209.649 27.9302 199.917ZM291.493 206.624C274.196 210.701 258.317 212.016 242.296 211.621C225.992 211.227 210.396 207.939 193.95 203.468C193.1 215.04 192.674 225.298 196.502 235.556C200.756 246.734 208.553 254.493 221.03 256.992C227.551 258.307 234.64 258.307 241.304 258.175C244.281 258.044 247.684 256.729 250.236 255.019C266.54 243.446 279.3 228.849 289.224 212.279C289.933 210.832 290.358 209.386 291.493 206.624ZM198.629 84.0577C222.873 97.3401 275.188 98.2607 290.358 90.1071C279.867 66.4355 250.945 39.3447 225.567 30.0076C221.88 39.0817 218.62 48.4188 214.224 57.3614C209.688 66.304 204.017 74.8521 198.629 84.0577ZM90.0283 33.6898C54.1588 48.9449 21.9756 94.7099 20.9831 121.801C34.8772 127.587 58.2703 130.743 65.0756 127.85C64.2249 127.324 63.5161 126.667 62.8072 126.141C53.3082 119.039 51.0397 108.781 56.8526 99.9703C62.949 90.7647 74.2911 88.1345 85.3496 93.1318C86.9092 93.7894 88.4687 94.4469 91.3043 95.6305C86.4839 74.4576 86.7674 54.5997 90.0283 33.6898ZM127.883 134.689C128.166 135.609 128.166 136.398 128.45 136.793C136.531 148.234 146.597 158.097 157.939 166.777C160.775 169.012 162.901 167.96 165.453 166.251C186.436 151.916 202.032 133.637 212.665 111.543C213.374 109.965 213.799 108.387 214.366 106.414C206.71 103.784 199.338 101.811 192.391 98.7867C187.854 96.8141 185.302 97.7346 182.041 100.759C167.296 114.436 150.425 125.088 131.285 132.584C130.009 133.11 129.017 134.031 127.883 134.689ZM170.983 88.9235C144.329 73.274 124.622 52.8901 109.735 28.035C100.236 59.9916 103.213 90.5016 118.667 120.749C138.516 113.516 155.529 103.653 170.983 88.9235ZM198.204 51.049C203.166 44.2105 205.718 36.583 207.986 28.824C209.688 22.9061 209.546 22.6431 203.308 20.9335C181.049 14.6211 158.365 13.569 135.539 17.1197C132.278 17.6458 129.017 18.8294 125.047 19.8814C133.695 35.794 144.187 49.0764 158.365 59.8601C154.253 49.9969 153.686 40.7913 162.901 33.4268C169.565 28.035 177.646 27.3774 185.444 30.6651C194.659 34.4789 198.062 41.8434 198.204 51.049ZM191.966 175.588C197.353 179.533 203.308 181.374 209.688 181.506C214.083 181.637 217.202 179.139 218.903 175.325C220.463 171.643 219.187 168.486 216.209 165.725C213.09 162.831 209.404 162.7 205.718 164.278C200.189 166.777 195.51 170.327 191.966 175.588ZM180.482 65.1204C183.884 58.808 188.138 53.1531 185.869 45.9202C184.31 40.7913 178.639 38.1611 173.818 39.7393C168.147 41.5804 165.453 46.5777 167.864 51.7065C170.416 57.2299 174.385 61.7012 180.482 65.1204ZM90.4536 119.434C89.0358 112.99 86.7674 107.861 82.3723 103.784C79.1115 100.891 74.8582 100.233 71.3138 101.943C67.7694 103.653 65.5009 106.283 65.7845 110.359C65.9263 114.568 68.1947 117.329 72.448 118.645C77.9773 120.354 83.7901 120.617 90.4536 119.434Z" fill="white" fill-opacity="0.08"/>
<path d="M161.2 0.0236052C247.117 -0.765447 322.116 64.0684 322.4 148.76C322.683 230.427 253.213 298.68 161.625 298.812C67.7694 299.075 0.141978 228.849 0.000201823 149.549C-0.141575 65.515 74.4329 -0.765447 161.2 0.0236052ZM214.933 191.763C216.635 192.815 216.918 193.21 217.344 193.341C243.856 198.733 269.801 197.155 295.604 189.265C299.29 188.081 300.708 185.714 301.417 182.558C307.797 158.36 307.372 134.426 299.716 110.622C298.581 107.072 297.022 105.625 292.769 106.546C274.763 110.622 256.332 111.412 237.901 109.702C232.939 109.307 230.812 110.491 228.969 114.568C223.865 126.667 217.06 137.845 208.27 148.102C207.419 149.155 206.994 150.601 206.001 152.442C218.052 152.311 227.126 156.125 230.103 166.645C233.364 178.481 227.693 186.766 214.933 191.763ZM17.1552 137.845C16.8716 140.87 16.3045 143.237 16.4463 145.472C17.1552 155.072 18.2894 164.673 18.9982 174.273C19.2818 179.139 22.1173 181.374 26.796 183.084C62.3819 195.577 97.826 195.577 133.27 182.821C137.098 181.374 140.784 179.533 145.179 177.692C143.62 176.114 142.769 175.062 141.777 174.273C131.143 165.725 122.353 155.861 114.414 145.078C110.302 139.554 110.302 139.554 102.93 141.133C84.0737 145.078 65.0756 145.735 45.9358 143.105C36.7203 141.79 27.5048 139.817 17.1552 137.845ZM216.918 273.299C215.217 271.984 214.65 271.458 214.083 271.195C193.1 264.751 181.474 250.811 178.497 230.953C177.079 221.09 177.504 210.964 177.646 200.837C177.646 198.076 177.221 196.366 174.527 195.051C169.99 192.815 165.595 188.87 160.917 188.476C156.663 188.213 151.985 191.895 147.59 193.736C147.164 193.868 146.739 194.131 146.314 194.262C143.336 195.314 142.911 197.155 142.911 199.917C143.053 208.465 143.62 217.013 142.344 225.43C139.083 246.603 127.457 261.989 104.064 268.038C102.646 268.433 101.37 269.222 98.8184 270.406C138.232 286.844 176.795 287.765 216.918 273.299ZM27.9302 199.917C28.7808 202.547 29.0644 203.862 29.6315 205.046C37.1456 220.432 47.9206 233.32 60.2552 245.682C68.1947 253.704 77.4102 255.677 88.1852 255.151C109.168 254.099 121.786 244.367 125.756 225.693C127.315 218.065 128.733 210.306 125.756 201.89C93.2891 210.043 61.2476 209.649 27.9302 199.917ZM291.493 206.624C274.196 210.701 258.317 212.016 242.296 211.621C225.992 211.227 210.396 207.939 193.95 203.468C193.1 215.04 192.674 225.298 196.502 235.556C200.756 246.734 208.553 254.493 221.03 256.992C227.551 258.307 234.64 258.307 241.304 258.175C244.281 258.044 247.684 256.729 250.236 255.019C266.54 243.446 279.3 228.849 289.224 212.279C289.933 210.832 290.358 209.386 291.493 206.624ZM198.629 84.0577C222.873 97.3401 275.188 98.2607 290.358 90.1071C279.867 66.4355 250.945 39.3447 225.567 30.0076C221.88 39.0817 218.62 48.4188 214.224 57.3614C209.688 66.304 204.017 74.8521 198.629 84.0577ZM90.0283 33.6898C54.1588 48.9449 21.9756 94.7099 20.9831 121.801C34.8772 127.587 58.2703 130.743 65.0756 127.85C64.2249 127.324 63.5161 126.667 62.8072 126.141C53.3082 119.039 51.0397 108.781 56.8526 99.9703C62.949 90.7647 74.2911 88.1345 85.3496 93.1318C86.9092 93.7894 88.4687 94.4469 91.3043 95.6305C86.4839 74.4576 86.7674 54.5997 90.0283 33.6898ZM127.883 134.689C128.166 135.609 128.166 136.398 128.45 136.793C136.531 148.234 146.597 158.097 157.939 166.777C160.775 169.012 162.901 167.96 165.453 166.251C186.436 151.916 202.032 133.637 212.665 111.543C213.374 109.965 213.799 108.387 214.366 106.414C206.71 103.784 199.338 101.811 192.391 98.7867C187.854 96.8141 185.302 97.7346 182.041 100.759C167.296 114.436 150.425 125.088 131.285 132.584C130.009 133.11 129.017 134.031 127.883 134.689ZM170.983 88.9235C144.329 73.274 124.622 52.8901 109.735 28.035C100.236 59.9916 103.213 90.5016 118.667 120.749C138.516 113.516 155.529 103.653 170.983 88.9235ZM198.204 51.049C203.166 44.2105 205.718 36.583 207.986 28.824C209.688 22.9061 209.546 22.6431 203.308 20.9335C181.049 14.6211 158.365 13.569 135.539 17.1197C132.278 17.6458 129.017 18.8294 125.047 19.8814C133.695 35.794 144.187 49.0764 158.365 59.8601C154.253 49.9969 153.686 40.7913 162.901 33.4268C169.565 28.035 177.646 27.3774 185.444 30.6651C194.659 34.4789 198.062 41.8434 198.204 51.049ZM191.966 175.588C197.353 179.533 203.308 181.374 209.688 181.506C214.083 181.637 217.202 179.139 218.903 175.325C220.463 171.643 219.187 168.486 216.209 165.725C213.09 162.831 209.404 162.7 205.718 164.278C200.189 166.777 195.51 170.327 191.966 175.588ZM180.482 65.1204C183.884 58.808 188.138 53.1531 185.869 45.9202C184.31 40.7913 178.639 38.1611 173.818 39.7393C168.147 41.5804 165.453 46.5777 167.864 51.7065C170.416 57.2299 174.385 61.7012 180.482 65.1204ZM90.4536 119.434C89.0358 112.99 86.7674 107.861 82.3723 103.784C79.1115 100.891 74.8582 100.233 71.3138 101.943C67.7694 103.653 65.5009 106.283 65.7845 110.359C65.9263 114.568 68.1947 117.329 72.448 118.645C77.9773 120.354 83.7901 120.617 90.4536 119.434Z" fill="#AB7A2D"/>
</svg>
